<?xml version="1.0" encoding="UTF-8"?><svg id="Layer_1" xmlns="http://www.w3.org/2000/svg" width="380" height="114.5082" viewBox="0 0 380 114.5082"><defs><style>.cls-1{fill:#e71e62;}.cls-2{fill:#3d3d3b;}</style></defs><g><path class="cls-2" d="M4.3607,111.5375V32.9975H23.4744V111.5375H4.3607Z"/><path class="cls-2" d="M112.7875,74.7002v1.3901c-.695,19.1137-15.291,34.7522-33.7096,36.1423h-3.1277c-21.5463,0-39.27-17.0286-39.965-38.5749-.695-11.1207,3.8227-21.5464,11.1207-28.8443,7.298-7.993,17.7236-12.1633,28.8443-12.1633,6.2554,0,12.1633,1.7376,17.7236,4.1703V4.1532h19.1137V74.7002Zm-19.1137,.695v-9.7306c0-3.1277-1.0426-5.5604-2.4326-7.298-4.1703-4.1703-9.3831-6.6029-15.291-6.6029-5.5603,0-11.1207,2.4327-15.291,6.2554-4.1703,4.1703-6.2554,9.7306-6.2554,15.291,.695,11.1207,9.7306,20.1563,20.8513,20.1563h1.7376c9.3831-.3475,16.6811-9.0356,16.6811-18.0711h0Z"/><path class="cls-2" d="M239.633,66.7072v44.8303h-19.1137v-44.8303c0-8.688-6.2554-15.291-13.5534-15.291s-13.5534,6.6029-13.5534,15.291v44.8303h-19.1137v-44.8303c0-8.688-6.2554-15.291-13.5534-15.291s-13.5534,6.6029-13.5534,15.291v44.8303h-19.1137v-44.8303c0-19.1137,14.5959-34.4047,32.3195-34.4047,9.3831,0,17.0286,3.8227,23.284,10.4257,6.2554-6.2554,14.2484-10.4257,23.284-10.4257,18.7662,.3475,32.6671,15.6385,32.6671,34.4047h0Z"/><path class="cls-2" d="M325.2817,90.7016c-3.8228,7.993-9.0356,14.2484-16.6811,17.7236-1.3901,.695-1.7376,1.0426-3.1277,1.0426-19.4612,7.993-42.7452-1.0426-51.4332-20.8513-4.1703-9.7306-4.1703-20.8513-.695-31.277,4.1703-9.7306,11.4682-17.7236,21.8939-22.2414,7.993-3.1277,15.986-3.8227,23.979-1.7376l-4.1703,18.4187c-4.1703-1.3901-8.688-.695-12.8583,1.3901-5.5604,1.7376-9.0356,6.2554-11.8157,11.8157s-1.7376,11.1207,0,16.681c4.1703,10.4257,17.0286,15.291,27.1067,11.1207,.695,0,1.3901-.695,1.7376-.695,3.8228-1.7376,6.2554-4.8653,7.993-8.688l18.0711,7.298h0Z"/><circle class="cls-1" cx="291.2948" cy="72.6289" r="6.4086"/><circle class="cls-1" cx="321.255" cy="61.4139" r="11.5355"/><circle class="cls-1" cx="362.7505" cy="49.1574" r="15.3806"/></g><circle class="cls-1" cx="13.914" cy="18.2045" r="9.2395"/></svg>