<?xml version="1.0" encoding="UTF-8"?><svg id="Layer_1" xmlns="http://www.w3.org/2000/svg" width="234.7248" height="75" viewBox="0 0 234.7248 75"><defs><style>.cls-1{fill-rule:evenodd;}.cls-1,.cls-2{fill:#e71e62;}.cls-3{fill:#3c3c3b;}</style></defs><path class="cls-1" d="M11.5235,58.574H47.6275c.8463,0,1.5748-.3203,2.1468-.9441s.8281-1.3772,.7549-2.2204l-2.2858-26.3309c-.1311-1.51-1.3859-2.6606-2.9017-2.6606H13.8093c-1.5158,0-2.7706,1.1506-2.9017,2.6606l-2.2858,26.3309c-.0732,.8432,.183,1.5966,.7549,2.2204,.572,.6238,1.3005,.9441,2.1468,.9441ZM28.8815,14.3415v2.8637l5.9715,1.6001c2.1635,.5797,3.4629,2.8304,2.8832,4.994l-.2439,.91h5.0201V14.3415c0-.5347-.436-.9709-.9709-.9709h-11.6892c-.5347,0-.9709,.4362-.9709,.9709h0Zm-7.0806,3.9863l-1.4759,5.5077h15.1742l.4593-1.7142c.1384-.5165-.1699-1.0505-.6864-1.189l-12.2823-3.291c-.5163-.1386-1.0505,.1699-1.189,.6864Zm-4.0835,11.9936v5.3674c0,3.2458,1.2913,6.3299,3.5846,8.6231s5.3772,3.5844,8.623,3.5844,6.3299-1.2913,8.6231-3.5844c2.2933-2.2933,3.5846-5.3773,3.5846-8.6231v-5.3674c0-1.0186-.8261-1.8446-1.8446-1.8446s-1.8446,.8261-1.8446,1.8446v5.3674c0,2.2651-.9039,4.4147-2.5037,6.0147-1.5998,1.5998-3.7495,2.5036-6.0147,2.5036s-4.4147-.9038-6.0145-2.5036c-1.5998-1.6-2.5037-3.7495-2.5037-6.0147v-5.3674c0-1.0186-.8261-1.8446-1.8446-1.8446s-1.8446,.8259-1.8446,1.8446h0Z"/><g><path class="cls-3" d="M90.0848,42.2552c-.2497,8.9738-7.7494,16.2501-16.7366,16.2501-.4469,0-.9207-.0135-1.3683-.0527-7.7366-.6318-13.8417-7.2763-14.0658-15.2368,0-.0026-.0128-.3999-.0128-.4732l.0064-29.4193h7.8945v13.5354c2.3133-1.182,4.9039-1.8266,7.546-1.8266,4.5662,0,8.8293,1.8028,12.0131,5.0792,3.1711,3.2627,4.8552,7.5785,4.7235,12.144Zm-7.8945-.2235c.0662-2.4211-.8153-4.697-2.5001-6.421-1.6706-1.7238-3.9209-2.6843-6.342-2.6843-2.4469,0-4.7364,.9867-6.4205,2.7767-.6966,.7474-1.1094,1.8383-1.1255,3.0086v4.0976c.0334,4.0487,3.0144,7.4605,6.8224,7.7751,.2368,.0128,.4609,.0263,.7236,.0263,4.6714,0,8.7105-3.9209,8.8421-8.5789Z"/><path class="cls-3" d="M123.689,25.2913v18.639c0,7.9252-6.4474,14.372-14.3707,14.372s-14.372-6.4488-14.372-14.372V25.2913h7.8945v18.639c0,3.5723,2.9065,6.4774,6.4775,6.4774s6.4763-2.9051,6.4763-6.4774V25.2913h7.8944Z"/><path class="cls-3" d="M138.3452,42.5806c0,4.2657,3.471,7.7367,7.7367,7.7367v7.8946c-8.6182,0-15.6311-7.0118-15.6311-15.6313V13.3231h7.8946v29.2575h-.0002Z"/><path class="cls-3" d="M182.0959,40.7952l-.0063,29.4188h-7.8946v-13.5354c-2.3133,1.182-4.9038,1.8266-7.5457,1.8266-4.5655,0-8.8289-1.803-12.0132-5.0791-3.1711-3.2629-4.8552-7.5787-4.7235-12.1443,.2504-8.9737,7.7499-16.2499,16.7367-16.2499,.4474,0,.9212,.0135,1.3682,.0527,7.7371,.6317,13.8422,7.2762,14.0657,15.2367,.0013,.0026,.0128,.4012,.0128,.4738Zm-7.8996-.0675c-.0328-4.0487-3.0143-7.4605-6.8222-7.7751-.2369-.0128-.4604-.0263-.7236-.0263-4.671,0-8.7106,3.9216-8.8423,8.5789-.0655,2.4211,.816,4.697,2.5001,6.421,1.6713,1.7238,3.9209,2.6843,6.3422,2.6843,2.4473,0,4.7369-.9867,6.421-2.776,.6958-.7474,1.1093-1.8383,1.1247-3.0093v-4.0976Z"/><path class="cls-3" d="M225.6719,45.1961l5.6766,5.4907c-2.0668,2.1278-5.7288,4.6419-9.8319,6.1409-2.8302,1.034-5.8655,1.5832-8.724,1.1982-5.8163-.7747-11.0429-4.9589-13.2871-10.6806-1.749-4.4042-1.6687-9.3222,.202-13.4794,1.6986-3.7867,4.7062-6.6367,8.4752-8.0137,.4204-.1536,.8497-.2824,1.2711-.3939,7.0893-1.8757,14.8359,2.6484,17.6352,10.3106,.7482,2.0481-.3057,4.3143-2.3529,5.0622l-16.4989,6.0277c1.4291,1.8032,3.4714,3.0605,5.5942,3.3493,3.4889,.4622,9.2412-2.3113,11.8404-5.012Zm-19.4025-6.0233l11.2342-4.1043c-1.7212-1.6822-3.9888-2.521-6.034-1.9843-1.9866,.544-3.6609,1.9822-4.5682,4.0225-.2935,.654-.5028,1.3463-.632,2.0661Z"/></g><circle class="cls-2" cx="190.2609" cy="42.6691" r="3.8421"/></svg>