<?xml version="1.0" encoding="UTF-8"?><svg id="Layer_1" xmlns="http://www.w3.org/2000/svg" viewBox="0 0 2283.78 534.55"><defs><style>.cls-1{fill:#e61c62;}.cls-1,.cls-2{stroke-width:0px;}.cls-2{fill:#3c3c3b;}</style></defs><path class="cls-2" d="m291.48,262.04c-2.26,81.28-70.19,147.18-151.58,147.18-4.05,0-8.34-.12-12.39-.48C57.44,403.01,2.15,342.84.12,270.74c0-.02-.12-3.62-.12-4.29L.06,0h71.5v122.59c20.95-10.71,44.41-16.54,68.34-16.54,41.36,0,79.97,16.33,108.8,46,28.72,29.55,43.97,68.64,42.78,109.99Zm-71.5-2.02c.6-21.93-7.38-42.54-22.64-58.15-15.13-15.61-35.51-24.31-57.44-24.31s-42.9,8.94-58.15,25.15c-6.31,6.77-10.05,16.65-10.19,27.25v37.11c.3,36.67,27.3,67.57,61.79,70.42,2.14.12,4.17.24,6.55.24,42.31,0,78.89-35.51,80.08-77.7Z"/><path class="cls-2" d="m595.84,108.4v168.81c0,71.78-58.39,130.17-130.16,130.17s-130.17-58.41-130.17-130.17V108.4h71.5v168.81c0,32.35,26.32,58.67,58.67,58.67s58.66-26.31,58.66-58.67V108.4h71.5Z"/><path class="cls-2" d="m728.58,264.99c0,38.63,31.44,70.07,70.07,70.07v71.5c-78.05,0-141.57-63.51-141.57-141.57V0h71.5v264.99h0Z"/><path class="cls-2" d="m1124.83,248.81l-.06,266.45h-71.5v-122.59c-20.95,10.71-44.41,16.54-68.34,16.54-41.35,0-79.96-16.33-108.8-46-28.72-29.55-43.97-68.64-42.78-109.99,2.27-81.28,70.19-147.18,151.58-147.18,4.05,0,8.34.12,12.39.48,70.07,5.72,125.37,65.9,127.39,138,.01.02.12,3.63.12,4.29Zm-71.55-.61c-.3-36.67-27.3-67.57-61.79-70.42-2.15-.12-4.17-.24-6.55-.24-42.3,0-78.89,35.52-80.08,77.7-.59,21.93,7.39,42.54,22.64,58.15,15.14,15.61,35.51,24.31,57.44,24.31s42.9-8.94,58.15-25.14c6.3-6.77,10.05-16.65,10.19-27.25v-37.11Z"/><path class="cls-2" d="m1638.7,253.22c1.19,41.35-14.06,80.44-42.78,109.99-28.84,29.67-67.45,46-108.8,46-23.93,0-47.38-5.84-68.34-16.54v122.59h-71.5l-.06-266.45c0-.67.12-4.28.12-4.29,2.03-72.1,57.32-132.28,127.39-138,4.05-.36,8.34-.48,12.39-.48,81.4,0,149.32,65.9,151.58,147.18Zm-71.5,2.02c-1.19-42.18-37.77-77.7-80.08-77.7-2.38,0-4.41.12-6.55.24-34.47,2.85-61.49,33.75-61.79,70.42v37.11c.15,10.61,3.88,20.49,10.19,27.25,15.25,16.21,35.99,25.14,58.15,25.14s42.31-8.7,57.44-24.31c15.26-15.61,23.24-36.23,22.64-58.15Z"/><path class="cls-2" d="m1966.65,232.18v172.9h-71.5v-13.9s-.03.02-.05.04c-16.8,9.65-35.75,15.85-55.89,17.52-4.05.36-8.34.48-12.39.48-81.39,0-149.32-65.9-151.58-147.18-1.19-41.35,14.06-80.44,42.78-109.99,28.84-29.67,67.45-46,108.69-46s81.75,17.4,110.23,47.55c19.19,20.38,29.67,47.67,29.67,76.98v1.6h.05Zm-71.55-1.6c0-10.84-3.69-20.97-10.13-27.88-15.37-16.21-35.99-25.15-58.27-25.15s-42.19,8.7-57.32,24.31c-15.25,15.61-23.24,36.23-22.64,58.15,1.19,42.19,37.78,77.7,80.08,77.7,2.26.12,4.41,0,6.55-.24,34.68-2.86,61.73-34.08,61.73-71.02v-35.87Z"/><path class="cls-2" d="m2283.78,108.4v254.63c0,94.58-76.95,171.53-171.53,171.53-23.23,0-45.78-4.59-67.03-13.62l27.96-65.79c12.37,5.24,25.53,7.91,39.09,7.91,43.55,0,80.6-28.03,94.28-66.96t-.02.01c-16.21,7.27-34.08,11.32-52.91,11.32-71.74,0-130.13-58.51-130.13-130.25V108.43h71.5v168.75c0,32.41,26.34,58.75,58.63,58.75s58.63-26.34,58.63-58.75V108.44h.03v-.05h71.5Z"/><circle class="cls-1" cx="1226.4" cy="267.28" r="50.97"/></svg>