<?xml version="1.0" encoding="UTF-8"?><svg id="Layer_1" xmlns="http://www.w3.org/2000/svg" width="205" height="75" viewBox="0 0 205 75"><defs><style>.cls-1{fill:#3c3c3b;}.cls-2{fill:#e71e62;}</style></defs><circle class="cls-2" cx="7.8311" cy="20.1753" r="3.1593"/><circle class="cls-2" cx="111.1015" cy="38.5114" r="3.9422"/><circle class="cls-2" cx="155.2866" cy="18.5356" r="5.2563"/><g><path class="cls-1" d="M147.3762,39.0246c.1099,3.8153-1.2974,7.422-3.9474,10.1487-2.6607,2.7378-6.2233,4.2445-10.0391,4.2445-2.208,0-4.3717-.5387-6.306-1.5265v11.3113h-6.5972l-.0053-24.5847c0-.0617,.0107-.3949,.0107-.396,.1872-6.6525,5.2891-12.2051,11.7544-12.7331,.374-.0327,.77-.044,1.1434-.044,7.5103,0,13.7777,6.0806,13.9865,13.5798Zm-6.5974,.1867c-.1099-3.8922-3.4853-7.1693-7.3891-7.1693-.2195,0-.4067,.0113-.6048,.022-3.1805,.2629-5.6733,3.114-5.7012,6.4974v3.4243c.0134,.9786,.3585,1.8902,.9406,2.5147,1.4073,1.4954,3.3206,2.3201,5.3655,2.3201,2.0233,0,3.9038-.8027,5.2998-2.2433,1.408-1.4407,2.1446-3.3426,2.0893-5.3659Z"/><path class="cls-1" d="M151.9319,53.0364V25.6584h6.5972v27.378h-6.5972Z"/><path class="cls-1" d="M203.1101,37.459v15.5763h-6.5972v-15.5763c0-2.9853-2.143-5.4131-4.7773-5.4131s-4.7779,2.4279-4.7779,5.4131v15.5763h-6.5972v-15.5763c0-2.9853-2.143-5.4131-4.7774-5.4131s-4.7778,2.4279-4.7778,5.4131v15.5763h-6.5974v-15.5763c0-6.623,5.1032-12.011,11.3752-12.011,3.1554,0,6.0135,1.366,8.076,3.5648,2.0631-2.1987,4.9206-3.5648,8.0766-3.5648,6.2715,0,11.3734,5.389,11.3745,12.011Z"/></g><path class="cls-1" d="M4.2076,52.8624V25.4845h6.5974v27.378H4.2076Z"/><path class="cls-1" d="M40.5032,37.285v15.5763h-6.5972v-15.5763c0-2.9853-2.4268-5.4131-5.4121-5.4131s-5.4132,2.4279-5.4132,5.4131v15.5763h-6.5971v-15.5763c0-6.623,5.3878-12.011,12.0103-12.011s12.0094,5.389,12.0094,12.011Z"/><path class="cls-1" d="M59.0201,47.0543v6.5972c-7.203,0-13.0625-5.8594-13.0625-13.0625v-8.5105h-2.0035v-6.5973h2.0035v-3.995h6.5972v3.995h5.4647v6.5973h-5.4647v8.5105c0,3.5648,2.8995,6.4653,6.4653,6.4653Z"/><path class="cls-1" d="M81.265,45.47l2.8813,5.9378c-2.2326,1.0775-5.8279,2.0008-9.4785,2.0008-2.518,0-5.058-.4395-7.1912-1.5613-4.3433-2.276-7.246-7.0592-7.3667-12.1939-.1101-3.9586,1.3634-7.796,4.0241-10.5226,2.4192-2.4853,5.5971-3.8599,8.9504-3.8599,.374,0,.7479,.022,1.1107,.0553,6.1025,.5607,10.8859,6.3333,10.8859,13.1506,0,1.822-1.4771,3.2987-3.2987,3.2987h-14.6792c.6046,1.8252,1.8473,3.3977,3.4307,4.2332,2.6059,1.3634,7.9166,.8359,10.7313-.5387Zm-13.5025-10.292h9.9952c-.8687-1.814-2.408-3.1226-4.1672-3.2878-1.7153-.1427-3.442,.5059-4.7393,1.8473-.418,.4292-.7807,.9126-1.0887,1.4406Z"/><path class="cls-1" d="M102.7832,46.4015v6.5972c-7.202,0-13.0627-5.8596-13.0627-13.0625V15.486h6.5974v24.4501c0,3.5647,2.9005,6.4653,6.4653,6.4653Z"/></svg>