<?xml version="1.0" encoding="utf-8"?>
<!-- Generator: Adobe Illustrator 26.5.3, SVG Export Plug-In . SVG Version: 6.00 Build 0)  -->
<svg version="1.1" id="Layer_1" xmlns="http://www.w3.org/2000/svg" xmlns:xlink="http://www.w3.org/1999/xlink" x="0px" y="0px"
	 width="1024px" height="250px" viewBox="0 0 1024 250" style="enable-background:new 0 0 1024 250;" xml:space="preserve">
<style type="text/css">
	.st0{fill:#FFFFFF;}
	.st1{fill:#E71E62;}
</style>
<g>
	<path class="st0" d="M138.1,127.5c-1,36.1-31.2,65.4-67.3,65.4c-1.8,0-3.7-0.1-5.5-0.2c-31.1-2.5-55.7-29.3-56.6-61.3
		c0,0-0.1-1.6-0.1-1.9l0-118.4h31.8v54.5c9.3-4.8,19.7-7.3,30.4-7.3c18.4,0,35.5,7.3,48.3,20.4C131.8,91.7,138.6,109.1,138.1,127.5z
		 M106.3,126.6c0.3-9.7-3.3-18.9-10.1-25.8c-6.7-6.9-15.8-10.8-25.5-10.8c-9.8,0-19.1,4-25.8,11.2c-2.8,3-4.5,7.4-4.5,12.1v16.5
		c0.1,16.3,12.1,30,27.4,31.3c1,0.1,1.9,0.1,2.9,0.1C89.5,161.1,105.8,145.3,106.3,126.6z"/>
	<path class="st0" d="M273.3,59.2v75c0,31.9-25.9,57.8-57.8,57.8c-31.9,0-57.8-25.9-57.8-57.8v-75h31.8v75
		c0,14.4,11.7,26.1,26.1,26.1c14.4,0,26.1-11.7,26.1-26.1v-75H273.3z"/>
	<path class="st0" d="M363.4,159.9v31.8c-34.7,0-62.9-28.2-62.9-62.9V11.1h31.8v117.7C332.2,145.9,346.2,159.9,363.4,159.9z"/>
	<path class="st0" d="M508.2,121.6l0,118.3h-31.8v-54.5c-9.3,4.8-19.7,7.3-30.4,7.3c-18.4,0-35.5-7.3-48.3-20.4
		c-12.8-13.1-19.5-30.5-19-48.9c1-36.1,31.2-65.4,67.3-65.4c1.8,0,3.7,0.1,5.5,0.2c31.1,2.5,55.7,29.3,56.6,61.3
		C508.2,119.7,508.2,121.3,508.2,121.6z M476.5,121.3c-0.1-16.3-12.1-30-27.4-31.3c-1-0.1-1.9-0.1-2.9-0.1
		c-18.8,0-35,15.8-35.6,34.5c-0.3,9.7,3.3,18.9,10.1,25.8c6.7,6.9,15.8,10.8,25.5,10.8c9.8,0,19.1-4,25.8-11.2
		c2.8-3,4.5-7.4,4.5-12.1V121.3z"/>
	<path class="st0" d="M614.5,184.1c-11.5,8-25.4,10.7-38.5,10.7c-16.7,0-32.3-4.2-40.8-7l10-30.2c17,5.6,39.3,8.7,51.1,0.5
		c4.3-3,5.3-8.9,4.3-13.5c-0.6-2.9-2.3-6.6-6.8-8.3c-4.1-1.5-10.1-1.3-16.3-1.1l-1.1,0c-7.5,0.3-21.6,0.7-32.9-7.7
		c-7.7-5.7-12.6-14.1-13.7-23.7c-1.2-10.2,1.9-20.6,8.5-28.6c19.2-23.2,55.3-18.5,79.2-15.3l5.3,0.7L619,92.1l-5.6-0.7
		c-15.9-2.1-42.6-5.6-50.6,4.1c-1.1,1.3-1.7,3.1-1.5,4.6c0.1,1.1,0.6,1.6,1.1,2c2.5,1.8,9.5,1.6,12.9,1.5l1,0
		c8.6-0.3,18.5-0.7,28.5,3.1c13.8,5.1,23.8,17,26.9,31.6C635.5,156.2,628.7,174.2,614.5,184.1z"/>
	<path class="st0" d="M783.9,125.5c0,37.1-30.2,67.2-67.3,67.2c-37.1,0-67.2-30.2-67.2-67.2c0-37.1,30.2-67.3,67.2-67.3
		C753.7,58.2,783.9,88.4,783.9,125.5z M752.2,125.5c0-19.6-15.9-35.5-35.5-35.5c-19.5,0-35.5,15.9-35.5,35.5
		c0,19.6,15.9,35.5,35.5,35.5C736.2,160.9,752.2,145.1,752.2,125.5z"/>
	<path class="st0" d="M873.7,7.5v31.8h-6.7c-12.3,0-22.5,8.5-25.3,19.9h22.1V91h-23v100h-31.8V91h-9V59.2h9.3
		c3.1-29,27.7-51.7,57.5-51.7H873.7z"/>
	<path class="st0" d="M953.1,163.1v31.8c-34.7,0-62.9-28.2-62.9-62.9V91h-9.6V59.2h9.6V40H922v19.2h26.3V91H922v41
		C922,149.1,935.9,163.1,953.1,163.1z"/>
</g>
<circle class="st1" cx="993.3" cy="66.8" r="12.4"/>
<circle class="st1" cx="995" cy="116.8" r="15.5"/>
<circle class="st1" cx="996.9" cy="174.8" r="20.6"/>
</svg>
